<?xml version="1.0" encoding="UTF-8"?>
<svg version="1.1" xmlns="http://www.w3.org/2000/svg" viewBox="-40 -40 330 369"
     width="33"
     height="36.9">
<path fill="#FAFAFA" d="M0 0 C4 4.31578947 4 4.31578947 4 8 C64.06 8 124.12 8 186 8 C186.33 6.68 186.66 5.36 187 4 C190.2025811 -0.90395231 193.01295676 -3.01822427 198.66796875 -4.59375 C204.39537282 -5.59148873 209.57674922 -4.42998849 214.45703125 -1.26953125 C218.43820795 2.00612046 219.72508879 5.12582274 220.44921875 10.0625 C220.79884112 16.77524951 220.26370169 21.42051595 215.734375 26.54296875 C213.34129925 28.55336797 211.05025685 29.4189987 208 30 C207.95321115 33.12816888 208.09865713 35.99203018 209 39 C212.01214618 41.0359828 212.01214618 41.0359828 214.2109375 42.01171875 C217.53134011 43.84591495 218.97688029 46.50080952 220 50 C220.71545555 55.91541603 220.87208175 61.08812846 218.375 66.5625 C215.77681595 69.22905732 213.2402468 71.16855616 210 73 C209.34 73 208.68 73 208 73 C208.01324604 76.09957429 208.19241507 78.99891021 209 82 C211.75954128 84.33969988 211.75954128 84.33969988 215 86 C220.02647617 91.7057297 220.3474964 95.28228274 220.28125 102.79296875 C219.79936449 108.28780215 217.33239341 110.76509879 213.4375 114.375 C211 116 211 116 208 116 C208 119.3 208 122.6 208 126 C208.70125 126.020625 209.4025 126.04125 210.125 126.0625 C214.36757751 127.44594919 216.42179573 130.46720744 219 134 C221.20840635 138.41681271 220.42161434 144.19242534 220 149 C217.880554 153.47438601 215.11405844 156.25729438 211 159 C210.01 159 209.02 159 208 159 C208 162.3 208 165.6 208 169 C208.70125 169.020625 209.4025 169.04125 210.125 169.0625 C214.36757751 170.44594919 216.42179573 173.46720744 219 177 C221.20840635 181.41681271 220.42161434 187.19242534 220 192 C217.86526742 196.50665768 215.08177871 199.1741532 211 202 C205.8896176 203.7034608 200.03904453 203.97227202 194.86328125 202.31640625 C189.62233348 199.57656154 186.83320783 195.4996235 185 190 C184.32562321 184.39493388 184.87056786 179.74909974 187.578125 174.765625 C189.2581823 172.67940001 190.89475096 171.75279204 193.25 170.5 C196.17456024 168.89350566 196.17456024 168.89350566 197.796875 166.09375 C198.03004958 163.69025816 197.93396383 162.23418798 197 160 C195.12144674 158.49013476 193.17294502 157.45901331 191.046875 156.328125 C187.51035659 154.03343748 186.1425275 150.97028307 185 147 C183.9184946 140.55603033 185.258498 135.3346577 189 130 C191.70880255 127.42333416 193.46314783 126.17895072 197 125 C197.33 122.03 197.66 119.06 198 116 C197.278125 115.938125 196.55625 115.87625 195.8125 115.8125 C191.08963915 114.44811798 188.82239333 111.24776919 186.1875 107.25 C184.07138548 101.45852867 184.10337087 96.3284648 186.6875 90.6875 C189.18446987 86.24253945 192.12822469 83.6239251 197 82 C197.33 79.03 197.66 76.06 198 73 C197.278125 72.938125 196.55625 72.87625 195.8125 72.8125 C191.08963915 71.44811798 188.82239333 68.24776919 186.1875 64.25 C184.07138548 58.45852867 184.10337087 53.3284648 186.6875 47.6875 C188.59658955 44.30105847 190.66516731 42.08427043 194 40 C195.32 39.67 196.64 39.34 198 39 C198 36.03 198 33.06 198 30 C197.25363281 29.91492188 196.50726563 29.82984375 195.73828125 29.7421875 C192.44424111 28.84936635 191.36196097 27.7116137 189.1875 25.125 C188.58292969 24.42632812 187.97835937 23.72765625 187.35546875 23.0078125 C186 21 186 21 186 18 C183.03 18 180.06 18 177 18 C177 79.05 177 140.1 177 203 C176.01 203 175.02 203 174 203 C173.34644531 201.45892578 173.34644531 201.45892578 172.6796875 199.88671875 C165.87848083 183.96370999 165.87848083 183.96370999 156.1015625 169.75390625 C155 168 155 168 155 164 C157.64 164 160.28 164 163 164 C163 155.75 163 147.5 163 139 C156.4 139 149.8 139 143 139 C143 147.25 143 155.5 143 164 C144.32 164 145.64 164 147 164 C146.35537379 169.36329005 144.62033816 174.00159297 142.6875 179 C139.69250533 186.91056714 137.15014351 194.81342873 135 203 C134.01 203 133.02 203 132 203 C131.72027344 201.82566406 131.44054687 200.65132812 131.15234375 199.44140625 C128.84340291 190.06849749 126.14057634 181.18591034 122.23608398 172.34594727 C120 167.26190935 120 167.26190935 120 164 C121.65 164 123.3 164 125 164 C125 155.75 125 147.5 125 139 C118.07 139 111.14 139 104 139 C104 147.25 104 155.5 104 164 C105.32 164 106.64 164 108 164 C107.4580943 169.12525274 106.24485228 173.22381946 104.1875 177.9375 C100.88090314 185.760984 98.84804516 193.72728018 97 202 C95.68 202 94.36 202 93 202 C92.70867187 200.79085937 92.41734375 199.58171875 92.1171875 198.3359375 C89.82452196 189.09519799 87.24943771 180.48119219 83.13671875 171.8828125 C81.99834098 168.99579259 81.75677711 167.06573967 82 164 C83.32 164 84.64 164 86 164 C86 155.75 86 147.5 86 139 C79.07 139 72.14 139 65 139 C65 147.25 65 155.5 65 164 C66.65 164 68.3 164 70 164 C69.33998996 168.19577809 67.924927 171.73122641 66.25 175.625 C62.54561139 184.49318442 60.26731525 193.6799298 58 203 C57.01 203 56.02 203 55 203 C54.77860352 202.25951416 54.55720703 201.51902832 54.32910156 200.75610352 C53.30883657 197.35637037 52.27948961 193.95945064 51.25 190.5625 C50.90195313 189.39783203 50.55390625 188.23316406 50.1953125 187.03320312 C48.39115758 181.10287909 46.49872706 175.43489084 43.72558594 169.88256836 C43 168 43 168 43 164 C44.32 164 45.64 164 47 164 C47 155.75 47 147.5 47 139 C40.4 139 33.8 139 27 139 C27 147.25 27 155.5 27 164 C29.64 164 32.28 164 35 164 C34.47169858 168.58429297 32.4421811 171.67281033 29.875 175.375 C24.07087446 184.04567661 19.79847007 193.29279871 16 203 C15.01 203 14.02 203 13 203 C13 141.95 13 80.9 13 18 C10.03 18 7.06 18 4 18 C3.91492187 18.74636719 3.82984375 19.49273437 3.7421875 20.26171875 C2.84936635 23.55575889 1.7116137 24.63803903 -0.875 26.8125 C-1.57367187 27.41707031 -2.27234375 28.02164063 -2.9921875 28.64453125 C-5 30 -5 30 -8 30 C-8 32.97 -8 35.94 -8 39 C-7.113125 39.20625 -6.22625 39.4125 -5.3125 39.625 C-0.49135899 41.62622834 1.77753596 44.84613479 4.3125 49.3125 C5.64110721 54.50614638 5.65724539 59.20122315 3.8125 64.25 C1.17760667 68.24776919 -1.08963915 71.44811798 -5.8125 72.8125 C-6.534375 72.874375 -7.25625 72.93625 -8 73 C-7.98700557 76.09917224 -7.83063849 79.00434247 -7 82 C-4.21696962 83.84991114 -4.21696962 83.84991114 -1 85 C3.80642602 90.07344968 5.49650677 94.75599615 5.3125 101.65625 C4.56557431 107.25819265 2.27348184 110.96042298 -2.0625 114.5 C-5 116 -5 116 -8 116 C-8.04679376 119.12849731 -7.89996654 121.99139094 -7 125 C-4.00149019 127.10861271 -4.00149019 127.10861271 -1.78515625 128.0390625 C2.04891334 130.10291615 3.6803957 134.04118709 5 138 C5.67437679 143.60506612 5.12943214 148.25090026 2.421875 153.234375 C0.7418177 155.32059999 -0.89475096 156.24720796 -3.25 157.5 C-6.17456024 159.10649434 -6.17456024 159.10649434 -7.796875 161.90625 C-8.03004958 164.30974184 -7.93396383 165.76581202 -7 168 C-5.12144674 169.50986524 -3.17294502 170.54098669 -1.046875 171.671875 C2.48964341 173.96656252 3.8574725 177.02971693 5 181 C6.0815054 187.44396967 4.741502 192.6653423 1 198 C-4.33550226 203.07523386 -8.93974251 203.34987281 -16.05078125 203.28125 C-21.35514925 202.77540299 -23.91656221 200.22984831 -27.3125 196.375 C-31.10915199 191.03156386 -30.55950019 185.37985635 -30 179 C-27.880554 174.52561399 -25.11405844 171.74270562 -21 169 C-20.01 169 -19.02 169 -18 169 C-18 165.7 -18 162.4 -18 159 C-18.70125 158.979375 -19.4025 158.95875 -20.125 158.9375 C-24.36757751 157.55405081 -26.42179573 154.53279256 -29 151 C-31.20840635 146.58318729 -30.42161434 140.80757466 -30 136 C-27.880554 131.52561399 -25.11405844 128.74270562 -21 126 C-20.01 126 -19.02 126 -18 126 C-18 122.7 -18 119.4 -18 116 C-19.32 115.67 -20.64 115.34 -22 115 C-25.60400165 112.33303878 -28.40138203 110.22597621 -30 106 C-30.64889804 100.15991761 -30.85126223 94.79710915 -28.3125 89.4375 C-25.47544173 86.44708723 -22.70579525 83.85289762 -19 82 C-18.53348793 79.87423218 -18.53348793 79.87423218 -18.375 77.4375 C-18.30023438 76.61121094 -18.22546875 75.78492188 -18.1484375 74.93359375 C-18.09945313 74.29550781 -18.05046875 73.65742188 -18 73 C-18.886875 72.79375 -19.77375 72.5875 -20.6875 72.375 C-25.30806999 70.45702755 -27.73914994 67.52170013 -30 63 C-30.64963655 55.38540767 -31.01472424 49.04338562 -26 43 C-24.79297696 42.33323836 -23.56187514 41.70855588 -22.3125 41.125 C-18.85991892 39.41767265 -18.85991892 39.41767265 -18.328125 36.7578125 C-18.0874754 34.48579716 -17.96584579 32.28345276 -18 30 C-18.86625 29.835 -19.7325 29.67 -20.625 29.5 C-25.38981254 27.38230554 -27.86530613 24.76650822 -30 20 C-30.9395367 14.22042573 -31.08447985 8.26461293 -28.375 2.9375 C-25.29230168 -0.87531108 -22.32639263 -3.18261881 -17.6875 -4.8125 C-10.75001758 -5.2965104 -5.48588115 -4.59283073 0 0 Z M-20.3125 8.6875 C-21.31716114 12.06681474 -20.8166726 14.60766767 -20 18 C-18.515 18.99 -18.515 18.99 -17 20 C-17 19.34 -17 18.68 -17 18 C-13.33333333 18 -9.66666667 18 -6 18 C-4.64145975 16.84859132 -4.64145975 16.84859132 -4.625 13.75 C-4.68558593 9.89638627 -4.68558593 9.89638627 -7.1875 7.0625 C-9.7763932 4.84161185 -9.7763932 4.84161185 -12.5625 4.5625 C-16.00792476 5.18090957 -18.12637221 5.87676426 -20.3125 8.6875 Z M197.0625 7 C194.56900461 10.62690238 194.57720032 12.68744326 195 17 C196.98 17.99 196.98 17.99 199 19 C199.33 18.67 199.66 18.34 200 18 C203.72224599 17.70613847 204.77786243 17.85190829 208 20 C210.15456896 17.06978621 211.02260131 15.56503279 210.875 11.875 C209.80120945 8.26411631 209.80120945 8.26411631 207 6 C202.61955695 4.70209095 200.90053187 4.38687192 197.0625 7 Z M27 22 C27 30.25 27 38.5 27 47 C33.6 47 40.2 47 47 47 C47 38.75 47 30.5 47 22 C40.4 22 33.8 22 27 22 Z M65 22 C65 30.25 65 38.5 65 47 C71.93 47 78.86 47 86 47 C86 38.75 86 30.5 86 22 C79.07 22 72.14 22 65 22 Z M104 22 C104 30.25 104 38.5 104 47 C110.93 47 117.86 47 125 47 C125 38.75 125 30.5 125 22 C118.07 22 111.14 22 104 22 Z M143 22 C143 30.25 143 38.5 143 47 C149.6 47 156.2 47 163 47 C163 38.75 163 30.5 163 22 C156.4 22 149.8 22 143 22 Z M-19 50 C-20.90368048 52.79953012 -20.99184124 54.15773599 -20.8125 57.625 C-20.34075097 61.26330048 -20.34075097 61.26330048 -17 63 C-16.34 62.34 -15.68 61.68 -15 61 C-12.625 60.875 -12.625 60.875 -10 61 C-8.68 61 -7.36 61 -6 61 C-4.61471351 59.83697846 -4.61471351 59.83697846 -4.8125 56.625 C-4.69546147 52.90324609 -4.69546147 52.90324609 -7 50 C-7.92232422 50.12568359 -7.92232422 50.12568359 -8.86328125 50.25390625 C-9.67152344 50.35574219 -10.47976562 50.45757812 -11.3125 50.5625 C-12.11300781 50.66691406 -12.91351563 50.77132812 -13.73828125 50.87890625 C-16 51 -16 51 -19 50 Z M197 50 C194.5705484 53.6441774 194.83820425 55.71241272 195 60 C196.98 60.99 196.98 60.99 199 62 C199.33 61.67 199.66 61.34 200 61 C203.72224599 60.70613847 204.77786243 60.85190829 208 63 C209.7089129 61.4212319 209.7089129 61.4212319 211 59 C210.77100357 55.67955183 210.4949015 52.989803 209 50 C208.07767578 50.12568359 208.07767578 50.12568359 207.13671875 50.25390625 C206.32847656 50.35574219 205.52023438 50.45757812 204.6875 50.5625 C203.88699219 50.66691406 203.08648437 50.77132812 202.26171875 50.87890625 C200 51 200 51 197 50 Z M27 61 C27 69.25 27 77.5 27 86 C33.6 86 40.2 86 47 86 C47 77.75 47 69.5 47 61 C40.4 61 33.8 61 27 61 Z M65 61 C65 69.25 65 77.5 65 86 C71.93 86 78.86 86 86 86 C86 77.75 86 69.5 86 61 C79.07 61 72.14 61 65 61 Z M104 61 C104 69.25 104 77.5 104 86 C110.93 86 117.86 86 125 86 C125 77.75 125 69.5 125 61 C118.07 61 111.14 61 104 61 Z M143 61 C143 69.25 143 77.5 143 86 C149.6 86 156.2 86 163 86 C163 77.75 163 69.5 163 61 C156.4 61 149.8 61 143 61 Z M-18 93 C-19.7089129 94.5787681 -19.7089129 94.5787681 -21 97 C-21.00668717 100.62057268 -21.00668717 100.62057268 -20 104 C-18.515 104.99 -18.515 104.99 -17 106 C-16.34 105.34 -15.68 104.68 -15 104 C-12.0625 104.375 -12.0625 104.375 -9 105 C-8.01 105 -7.02 105 -6 105 C-4.49065783 101.98131566 -4.82489328 99.32702771 -5 96 C-5.66 95.01 -6.32 94.02 -7 93 C-7.66 93 -8.32 93 -9 93 C-9 93.66 -9 94.32 -9 95 C-15.75 94.125 -15.75 94.125 -18 93 Z M197 93 C194.53675931 96.69486103 194.61008312 98.63293092 195 103 C196.35429841 104.94369738 196.35429841 104.94369738 198 106 C198.99 105.34 199.98 104.68 201 104 C203.5 104.375 203.5 104.375 206 105 C206.99 105 207.98 105 209 105 C211.36139302 102.10538099 211.36139302 102.10538099 210.8125 98.4375 C210.35160238 94.74174248 210.35160238 94.74174248 207 93 C206.67 93.33 206.34 93.66 206 94 C203.67182036 94.36760731 201.3381615 94.70241581 199 95 C199 94.34 199 93.68 199 93 C198.34 93 197.68 93 197 93 Z M27 100 C27 108.25 27 116.5 27 125 C33.6 125 40.2 125 47 125 C47 116.75 47 108.5 47 100 C40.4 100 33.8 100 27 100 Z M65 100 C65 108.25 65 116.5 65 125 C71.93 125 78.86 125 86 125 C86 116.75 86 108.5 86 100 C79.07 100 72.14 100 65 100 Z M104 100 C104 108.25 104 116.5 104 125 C110.93 125 117.86 125 125 125 C125 116.75 125 108.5 125 100 C118.07 100 111.14 100 104 100 Z M143 100 C143 108.25 143 116.5 143 125 C149.6 125 156.2 125 163 125 C163 116.75 163 108.5 163 100 C156.4 100 149.8 100 143 100 Z M-18 136 C-19.7089129 137.5787681 -19.7089129 137.5787681 -21 140 C-21.00668717 143.62057268 -21.00668717 143.62057268 -20 147 C-18.515 147.99 -18.515 147.99 -17 149 C-16.34 148.34 -15.68 147.68 -15 147 C-11.875 146.875 -11.875 146.875 -9 147 C-9 147.66 -9 148.32 -9 149 C-8.01 148.67 -7.02 148.34 -6 148 C-4.49065783 144.98131566 -4.82489328 142.32702771 -5 139 C-5.66 138.01 -6.32 137.02 -7 136 C-7.66 136 -8.32 136 -9 136 C-9 136.66 -9 137.32 -9 138 C-15.75 137.125 -15.75 137.125 -18 136 Z M197 136 C194.54188375 139.68717438 194.68881836 141.64345704 195 146 C195.99 147.485 195.99 147.485 197 149 C197.66 149 198.32 149 199 149 C199 148.34 199 147.68 199 147 C204.625 146.75 204.625 146.75 208 149 C209.7089129 147.4212319 209.7089129 147.4212319 211 145 C211.00668717 141.37942732 211.00668717 141.37942732 210 138 C209.01 137.34 208.02 136.68 207 136 C204.47130918 136.84478498 204.47130918 136.84478498 202 138 C201.01 138 200.02 138 199 138 C199 137.34 199 136.68 199 136 C198.34 136 197.68 136 197 136 Z M-18 179 C-19.7089129 180.5787681 -19.7089129 180.5787681 -21 183 C-20.87971231 186.42819926 -20.6667364 188.94725831 -18.8125 191.875 C-16.15800608 193.52261692 -14.11672513 193.87533099 -11 194 C-7.27156036 192.26655125 -7.27156036 192.26655125 -5 189 C-4.65907959 183.67032792 -4.65907959 183.67032792 -7 179 C-7.66 179 -8.32 179 -9 179 C-9 179.66 -9 180.32 -9 181 C-15.75 180.125 -15.75 180.125 -18 179 Z M197 179 C194.51961093 182.7205836 194.53662797 184.59796571 195 189 C196.92982417 191.71604883 198.34200775 192.74692606 201.4375 193.9375 C204.81879751 194.01997067 206.33086744 193.0198841 209 191 C211.36139302 188.10538099 211.36139302 188.10538099 210.8125 184.4375 C210.35160238 180.74174248 210.35160238 180.74174248 207 179 C206.01 179.66 205.02 180.32 204 181 C201.3125 181.125 201.3125 181.125 199 181 C199 180.34 199 179.68 199 179 C198.34 179 197.68 179 197 179 Z " transform="translate(30,86)"/>
<path fill="#FAFAFA" d="M0 0 C0.92087402 -0.0038269 1.84174805 -0.00765381 2.79052734 -0.01159668 C4.73731581 -0.01431842 6.68414068 -0.00693889 8.63085938 0.00976562 C11.61410905 0.03117185 14.59495041 0.0099732 17.578125 -0.015625 C19.46875533 -0.01298177 21.35938415 -0.00785689 23.25 0 C24.14380371 -0.00809692 25.03760742 -0.01619385 25.95849609 -0.02453613 C32.15120113 0.06942919 32.15120113 0.06942919 34.7109375 2.56445312 C35.01257813 3.21349609 35.31421875 3.86253906 35.625 4.53125 C35.10550781 4.75039062 34.58601562 4.96953125 34.05078125 5.1953125 C28.22924166 7.84244511 24.16123952 10.74640183 21.65625 16.91796875 C20.91311367 19.10953282 20.23504526 21.29937709 19.625 23.53125 C26.82769135 21.04389955 26.82769135 21.04389955 33 16.71875 C35.625 14.53125 35.625 14.53125 37.9375 14.65625 C39.625 15.53125 39.625 15.53125 40.625 16.53125 C40.84289186 20.64702589 40.81079188 24.76589923 40.81030273 28.88696289 C40.81248734 30.95675264 40.83063491 33.02600793 40.84960938 35.09570312 C40.85154297 36.39314453 40.85347656 37.69058594 40.85546875 39.02734375 C40.85957764 40.22544678 40.86368652 41.4235498 40.86791992 42.65795898 C40.625 45.53125 40.625 45.53125 38.625 47.53125 C34.92289664 47.39903202 33.06807697 45.1589468 30.41796875 42.80859375 C27.18456258 40.50505602 23.41915362 39.56831866 19.625 38.53125 C20.63752239 44.52644835 22.03677077 48.62733672 25.625 53.53125 C25.625 54.19125 25.625 54.85125 25.625 55.53125 C26.94758472 56.21899405 28.28486503 56.87836373 29.625 57.53125 C30.65625 58.0675 31.6875 58.60375 32.75 59.15625 C37.87160171 61.31040008 43.51369564 61.4945364 48.8203125 59.8515625 C50.45709911 59.15576252 52.04817252 58.3539426 53.625 57.53125 C53.5425 56.335 53.46 55.13875 53.375 53.90625 C53.34377897 50.35329629 53.58452865 49.59134382 55.6875 46.46875 C58.01909109 43.57627537 58.01909109 43.57627537 57.375 39.65625 C57.1275 38.625 56.88 37.59375 56.625 36.53125 C51.84737362 35.51437954 51.84737362 35.51437954 47.1875 36.46875 C46.671875 36.819375 46.15625 37.17 45.625 37.53125 C44.02883257 34.33891515 44.11033886 30.99663503 44.625 27.53125 C46.49515094 25.10005377 47.90638345 23.89055827 50.625 22.53125 C57.09558824 22.17830882 57.09558824 22.17830882 60.625 24.53125 C60.79515625 23.93957031 60.9653125 23.34789063 61.140625 22.73828125 C62.60986834 17.94761014 63.94414037 14.10384905 67.625 10.53125 C70.375 9.21875 70.375 9.21875 72.625 8.53125 C75.96790184 12.7462132 76.76424474 15.7448505 76.75 21.09375 C76.75257813 22.06441406 76.75515625 23.03507812 76.7578125 24.03515625 C76.625 26.53125 76.625 26.53125 75.625 28.53125 C76.841875 28.428125 78.05875 28.325 79.3125 28.21875 C82.76925282 28.23716964 83.58885473 28.50715315 86.625 30.53125 C89.38277063 34.66790594 89.24888198 36.61817938 88.625 41.53125 C87.25 44.03125 87.25 44.03125 85.625 45.53125 C84.965 45.53125 84.305 45.53125 83.625 45.53125 C82.861875 44.685625 82.09875 43.84 81.3125 42.96875 C78.89792482 40.23033289 78.89792482 40.23033289 75.9375 40.53125 C73.30636031 41.4203783 73.30636031 41.4203783 71.625 44.53125 C71.52697461 47.32284272 71.69213089 50.05176725 71.84765625 52.83984375 C71.58541856 56.00969937 70.60437574 57.12180047 68.625 59.53125 C68.53694854 62.1746274 68.53694854 62.1746274 69.625 64.53125 C71.2357605 65.80003594 71.2357605 65.80003594 73.625 66.53125 C74.19476563 66.80066406 74.76453125 67.07007812 75.3515625 67.34765625 C80.62424572 69.68990397 85.03530273 70.0735924 90.625 68.53125 C95.24963075 65.9620107 98.92985464 63.61668609 100.625 58.53125 C96.665 59.52125 92.705 60.51125 88.625 61.53125 C87.47628783 55.78768913 88.71029266 53.611458 91.375 48.78125 C93.76605382 44.28186139 95.9785772 40.02090089 97.375 35.09375 C97.99375 33.3303125 97.99375 33.3303125 98.625 31.53125 C100.605 31.03625 100.605 31.03625 102.625 30.53125 C104.605 33.50125 106.585 36.47125 108.625 39.53125 C108.95095099 29.34249546 108.95095099 29.34249546 106.625 19.53125 C108.640625 18.36328125 108.640625 18.36328125 111.625 17.53125 C114.41047917 18.28589342 116.75719122 19.08638377 119.375 20.21875 C120.05949219 20.48880859 120.74398437 20.75886719 121.44921875 21.03710938 C123.421875 21.85546875 123.421875 21.85546875 126.625 23.53125 C128.09387659 27.93787976 125.99375786 30.91891972 124.171875 34.94921875 C123.80019196 35.79124847 123.42850891 36.6332782 123.04556274 37.50082397 C121.8314686 40.24442804 120.60352245 42.98158005 119.375 45.71875 C118.54438612 47.58749893 117.71447133 49.45655874 116.88525391 51.32592773 C110.90712414 64.77660977 104.84701474 78.19146857 98.625 91.53125 C94.29826085 91.00659029 90.6275907 89.8559802 86.61499023 88.25878906 C38.18217344 69.01096833 -17.26476312 69.90887494 -65.51171875 89.11328125 C-68.76700564 90.38264343 -71.89238251 91.10894835 -75.375 91.53125 C-82.28073176 76.85428972 -88.98056428 62.08635803 -95.51882935 47.24221802 C-96.29856437 45.47516476 -97.08167398 43.70959678 -97.86813354 41.94552612 C-98.98024465 39.44824079 -100.07959831 36.94571637 -101.17578125 34.44140625 C-101.51475433 33.68622711 -101.85372742 32.93104797 -102.20297241 32.15298462 C-104.48927405 26.87407214 -104.48927405 26.87407214 -103.375 23.53125 C-100.95262299 22.26393325 -98.65435176 21.21667692 -96.125 20.21875 C-95.45597656 19.92935547 -94.78695312 19.63996094 -94.09765625 19.34179688 C-90.78487158 18.01082543 -88.87875691 17.39080468 -85.390625 18.36328125 C-84.72546875 18.74871094 -84.0603125 19.13414063 -83.375 19.53125 C-83.705 20.418125 -84.035 21.305 -84.375 22.21875 C-86.02548396 27.84434323 -85.53203422 33.72970814 -85.375 39.53125 C-82.405 35.07625 -82.405 35.07625 -79.375 30.53125 C-78.055 30.86125 -76.735 31.19125 -75.375 31.53125 C-74.19908392 34.05751472 -73.28989284 36.39794916 -72.4375 39.03125 C-70.50813618 44.64162871 -68.47075522 49.66575821 -65.16015625 54.63671875 C-64.375 56.53125 -64.375 56.53125 -65.375 61.53125 C-69.335 60.54125 -73.295 59.55125 -77.375 58.53125 C-74.24361002 63.7502333 -72.04781412 66.25558872 -66.625 68.84375 C-61.81199484 69.86188571 -56.98668836 69.90086152 -52.53515625 67.56640625 C-51.1203396 66.59436841 -49.74422673 65.56651899 -48.375 64.53125 C-47.715 64.53125 -47.055 64.53125 -46.375 64.53125 C-45.59697813 62.2297089 -45.59697813 62.2297089 -45.375 59.53125 C-45.86484375 58.92796875 -46.3546875 58.3246875 -46.859375 57.703125 C-48.80960483 54.90846576 -48.56585539 53.38475409 -48.3125 50.03125 C-48.15973315 45.66352123 -48.15973315 45.66352123 -50.0625 41.78125 C-52.31258839 40.3281646 -52.31258839 40.3281646 -54.9375 40.53125 C-57.79435667 41.70329376 -58.78133553 42.9310606 -60.375 45.53125 C-64.25 43.78125 -64.25 43.78125 -65.375 41.53125 C-66.06071429 34.55982143 -66.06071429 34.55982143 -63.375 30.53125 C-59.34520535 27.84472023 -57.13565969 28.12780426 -52.375 28.53125 C-52.87 27.54125 -52.87 27.54125 -53.375 26.53125 C-53.91289246 20.20066946 -53.9349517 15.01950887 -50.375 9.53125 C-46.375 9.53125 -46.375 9.53125 -43.8125 11.65625 C-40.50622533 15.55595859 -38.34462921 19.48917812 -37.375 24.53125 C-36.385 23.87125 -35.395 23.21125 -34.375 22.53125 C-30.19523765 22.22726728 -26.88125459 22.06388566 -23.375 24.53125 C-20.66267061 28.59974409 -21.06800113 30.69601784 -21.375 35.53125 C-22.365 36.52125 -22.365 36.52125 -23.375 37.53125 C-24.86 36.54125 -24.86 36.54125 -26.375 35.53125 C-30.01439932 35.84855524 -30.01439932 35.84855524 -33.375 36.53125 C-34.24154873 39.75104366 -34.24154873 39.75104366 -34.375 43.53125 C-33.05153494 45.5377938 -31.71770821 47.53753175 -30.375 49.53125 C-30.02882672 52.29561921 -30.18191243 54.73148027 -30.375 57.53125 C-24.69115633 60.49673366 -19.77548832 61.47132172 -13.375 60.53125 C-11.12714813 59.68830555 -9.13867011 58.71092424 -7.06640625 57.50390625 C-5.375 56.53125 -5.375 56.53125 -2.375 55.53125 C-1.27331016 53.83355766 -1.27331016 53.83355766 -0.375 51.53125 C0.140625 50.4175 0.65625 49.30375 1.1875 48.15625 C2.49010378 44.87142308 3.19927747 42.02217475 3.625 38.53125 C-2.37294515 40.08173922 -6.43693392 41.9288111 -10.76953125 46.421875 C-12.375 47.53125 -12.375 47.53125 -14.51171875 47.265625 C-16.375 46.53125 -16.375 46.53125 -17.375 45.53125 C-17.59289186 41.41547411 -17.56079188 37.29660077 -17.56030273 33.17553711 C-17.56248734 31.10574736 -17.58063491 29.03649207 -17.59960938 26.96679688 C-17.60154297 25.66935547 -17.60347656 24.37191406 -17.60546875 23.03515625 C-17.60957764 21.83705322 -17.61368652 20.6389502 -17.61791992 19.40454102 C-17.375 16.53125 -17.375 16.53125 -15.375 14.53125 C-12.58987682 14.72332746 -11.38076949 15.52632896 -9.25 17.34375 C-5.30675379 20.34404603 -1.00185622 21.84222287 3.625 23.53125 C1.48568682 16.06358537 -0.60587666 10.71662314 -7.375 6.53125 C-10.12047874 5.16074404 -10.12047874 5.16074404 -12.375 4.53125 C-9.82914186 -0.9466969 -5.29528919 -0.04796976 0 0 Z "  transform="translate(113.375,-0.53125)"/>
</svg>
